<?xml version="1.0" encoding="UTF-8"?>
<svg version="1.1" xmlns="http://www.w3.org/2000/svg" width="512" height="512">
<path d="M0 0 C1.68281629 -0.00300259 3.36563191 -0.00640759 5.04844666 -0.01017761 C9.56770751 -0.01891276 14.08694937 -0.02135132 18.60621786 -0.0219934 C21.44664926 -0.02271022 24.28707602 -0.02485639 27.12750626 -0.02749062 C37.0854955 -0.03671136 47.04347147 -0.04082987 57.00146484 -0.04003906 C66.20407813 -0.03944006 75.40663247 -0.04996539 84.60923088 -0.06578273 C92.57426372 -0.07897261 100.53927757 -0.08421818 108.50432122 -0.08358365 C113.23279982 -0.08333188 117.96122598 -0.08600119 122.68969345 -0.0967617 C177.07257296 -0.21184479 227.5871313 1.75254025 268.49658203 41.89526367 C301.18150835 74.88438218 306.99784594 117.45395484 308.00048828 162.05151367 C308.03077338 163.33186619 308.03077338 163.33186619 308.0616703 164.63808441 C308.61037603 188.35217564 308.62135994 212.07149092 308.61938477 235.79077148 C308.61928194 242.17840591 308.63311102 248.56593219 308.65015697 254.9535408 C308.66134944 259.96922287 308.66330202 264.98487894 308.66277504 270.0005722 C308.66393741 272.35564305 308.66825811 274.71071496 308.67610741 277.06577301 C308.78763141 313.85757865 308.78763141 313.85757865 304.18408203 330.52026367 C303.96719727 331.33857666 303.7503125 332.15688965 303.52685547 333 C296.88989945 357.17579677 284.49659751 377.01634097 267.43408203 395.14526367 C266.83595703 395.8078418 266.23783203 396.47041992 265.62158203 397.15307617 C244.27814718 419.87647448 210.03762178 434.79688813 179.10351562 436.25512695 C178.33990723 436.27172363 177.57629883 436.28832031 176.78955078 436.30541992 C175.66093628 436.33406128 175.66093628 436.33406128 174.50952148 436.36328125 C173.09539568 436.38383495 171.6803461 436.37444361 170.2668457 436.32763672 C163.78666606 436.39605248 160.72593743 439.81334548 156.43408203 444.14526367 C155.73766602 444.81831543 155.04125 445.49136719 154.32373047 446.18481445 C152.15009773 448.29556533 150.00817478 450.43456951 147.87158203 452.58276367 C146.7974707 453.65107422 146.7974707 453.65107422 145.70166016 454.7409668 C142.26723121 458.18164584 138.93772421 461.66249694 135.76220703 465.34448242 C131.09119465 470.75838348 125.79639154 475.4305282 120.43408203 480.14526367 C119.92651367 480.59224609 119.41894531 481.03922852 118.89599609 481.49975586 C101.78955893 496.44723508 85.58557641 504.20270793 62.81982422 503.31567383 C45.5394653 502.08136248 31.71692194 491.368449 19.43408203 480.14526367 C18.53471924 479.32832031 18.53471924 479.32832031 17.6171875 478.49487305 C6.62830063 468.47635155 -4.35710086 458.26522092 -14.00732422 446.93041992 C-19.38235052 440.19753083 -19.38235052 440.19753083 -26.84643555 436.92749023 C-27.79156006 436.88076172 -28.73668457 436.8340332 -29.71044922 436.78588867 C-71.44534032 434.39160214 -106.17893483 419.0572835 -134.68798828 388.27319336 C-143.50764139 378.27942106 -150.26680333 367.02601926 -155.75927734 354.92211914 C-156.48119569 353.3318886 -157.23260037 351.75512097 -157.98779297 350.18041992 C-160.75403022 344.09299042 -162.58749119 337.85280086 -164.25341797 331.39526367 C-164.45604248 330.62214844 -164.65866699 329.8490332 -164.86743164 329.05249023 C-169.12480136 311.65357754 -168.85278282 294.12779198 -168.80163741 276.34396911 C-168.79271769 272.57569433 -168.79461716 268.80742198 -168.79499817 265.03913879 C-168.79406613 258.70413116 -168.78545296 252.36917186 -168.77172852 246.03417969 C-168.75608308 238.78735162 -168.75072821 231.54057658 -168.75146407 224.29373282 C-168.75214904 216.48475706 -168.74514853 208.67580081 -168.73601747 200.86683106 C-168.73392146 198.66227467 -168.73318117 196.45772158 -168.73277855 194.25316429 C-168.71559658 145.58731977 -168.71559658 145.58731977 -166.31591797 125.27026367 C-166.18733398 124.16569824 -166.05875 123.06113281 -165.92626953 121.9230957 C-161.22456798 84.26062034 -144.55268341 53.16852901 -114.86279297 29.05932617 C-81.63154849 3.26196861 -40.64812068 -0.01477014 0 0 Z M-12.65771484 37.5715332 C-14.30685505 37.62568799 -14.30685505 37.62568799 -15.98931122 37.68093681 C-35.92288822 38.44076989 -57.58016155 39.66243955 -75.56591797 49.14526367 C-76.47470703 49.61448242 -77.38349609 50.08370117 -78.31982422 50.56713867 C-100.37982921 62.6469328 -117.47105733 82.7296116 -124.68310547 106.88745117 C-130.06911665 126.48480308 -130.70530274 146.87338786 -130.74291992 167.08813477 C-130.74920899 168.60806931 -130.75585779 170.12800241 -130.76283264 171.64793396 C-130.78356773 176.57151275 -130.79419897 181.49509085 -130.80419922 186.41870117 C-130.80825684 188.13079467 -130.81237402 189.84288802 -130.8165493 191.55498123 C-130.83552579 199.5981721 -130.84977787 207.64135418 -130.85816127 215.68456304 C-130.86793593 224.90367325 -130.89429342 234.12254355 -130.93466216 243.3415693 C-130.96497853 250.51578878 -130.97964432 257.68993996 -130.98294228 264.86422217 C-130.9852729 269.12805991 -130.99397198 273.39163913 -131.01940346 277.65540695 C-131.21751783 312.68875668 -125.68660327 341.45288766 -101.56591797 368.14526367 C-97.62633214 366.8320684 -96.22200767 364.31242659 -93.87841797 361.08276367 C-75.93942106 337.23532617 -49.02220862 322.97168854 -19.74964046 318.42446399 C-13.23188002 317.59113431 -6.6528409 317.72074377 -0.09423828 317.74121094 C1.58993986 317.7354906 3.27411413 317.72852 4.95828247 317.72041321 C9.48338405 317.70264723 14.00828998 317.70361895 18.53341579 317.70935559 C22.33489949 317.7124726 26.13634694 317.70632715 29.93782544 317.70031685 C38.91968196 317.68632665 47.90144326 317.68778591 56.88330078 317.69921875 C66.09463846 317.7106859 75.30568449 317.69663522 84.51698375 317.66982228 C92.47511086 317.64753969 100.43314727 317.64105621 108.3913033 317.64689869 C113.12241817 317.65024067 117.8533464 317.64804015 122.58443451 317.63064766 C158.09460746 317.51259463 190.60355631 320.69245988 218.43408203 345.14526367 C219.23974609 345.8078418 220.04541016 346.47041992 220.87548828 347.15307617 C226.69409053 352.08841642 231.32872921 357.52143023 235.85571289 363.62426758 C237.00730902 365.16297441 238.21601092 366.6586248 239.43408203 368.14526367 C240.09408203 368.14526367 240.75408203 368.14526367 241.43408203 368.14526367 C261.79938719 347.04801309 270.58960195 320.33062622 270.5793457 291.43432617 C270.58234302 290.05651255 270.58574686 288.67869977 270.58952332 287.30088806 C270.59832638 283.5699888 270.60070036 279.83911253 270.6013391 276.10820389 C270.60205367 273.76076271 270.60419603 271.41332721 270.60683632 269.06588745 C270.61608967 260.82688025 270.62017272 252.58788917 270.61938477 244.34887695 C270.61878952 236.75579486 270.62923128 229.1627851 270.64512843 221.56972122 C270.65838926 214.99331465 270.6635608 208.41693109 270.66292936 201.84051132 C270.66267897 197.93948579 270.66526404 194.03852404 270.67610741 190.13751221 C272.2825302 125.20949788 272.2825302 125.20949788 242.43408203 70.14526367 C241.19658203 68.84588867 241.19658203 68.84588867 239.93408203 67.52026367 C239.10908203 66.73651367 238.28408203 65.95276367 237.43408203 65.14526367 C236.82564453 64.55358398 236.21720703 63.9619043 235.59033203 63.35229492 C202.18298048 32.06316313 150.55772944 36.97070993 108.25670815 37.01093817 C104.63577845 37.01354216 101.01485075 37.01110264 97.3939209 37.009552 C91.32315607 37.00775301 85.25240356 37.01007592 79.18164062 37.01489258 C72.24927707 37.02033073 65.31694298 37.01856644 58.38458014 37.01306617 C52.33946408 37.00846923 46.29435669 37.00791607 40.24923944 37.01050484 C36.67953671 37.01203206 33.10984763 37.01236314 29.54014587 37.00896835 C15.46712072 36.99749247 1.40820232 37.09384636 -12.65771484 37.5715332 Z M-67.46435547 386.31323242 C-67.82787109 386.91780273 -68.19138672 387.52237305 -68.56591797 388.14526367 C-68.23591797 389.13526367 -67.90591797 390.12526367 -67.56591797 391.14526367 C-54.54668457 397.29844603 -39.35606121 398.98607619 -25.12841797 399.58276367 C-12.32460508 400.27278952 -1.58154392 404.50598414 7.23022461 414.10107422 C7.91624756 414.87491455 8.60227051 415.64875488 9.30908203 416.44604492 C15.19626443 423.08661558 21.4336313 429.36705133 27.69848633 435.64990234 C29.73937743 437.70052472 31.76931443 439.76160303 33.79931641 441.82299805 C49.33181131 458.26975165 49.33181131 458.26975165 69.70361328 466.36401367 C86.73661323 465.64809073 102.12858803 445.62602129 113.37158203 434.39526367 C113.91573761 433.85219574 114.45989319 433.30912781 115.02053833 432.74960327 C120.51117193 427.25772761 125.95297668 421.75700394 130.96679688 415.81860352 C138.48914346 407.23987415 148.51614112 400.94888603 160.02685547 399.91162109 C160.93983398 399.85852783 161.8528125 399.80543457 162.79345703 399.75073242 C178.68830106 398.72421123 194.02464823 397.48097543 208.43408203 390.14526367 C201.24689663 374.74415209 183.92565124 363.78259688 168.43408203 358.14526367 C159.93386556 355.59733984 151.55757846 354.02792189 142.66371155 354.00482178 C141.69774643 354.00036509 141.69774643 354.00036509 140.71226686 353.99581838 C138.57403351 353.98721036 136.43585667 353.98562986 134.29760742 353.98413086 C132.75605146 353.97949688 131.21449663 353.97447145 129.67294312 353.96908569 C125.49679709 353.9560109 121.32066711 353.94952576 117.14450383 353.94507504 C114.52833993 353.94213485 111.91218032 353.93802818 109.2960186 353.93357086 C101.09048168 353.91990559 92.88495468 353.91023558 84.67940718 353.90636897 C75.24571964 353.90189789 65.81217769 353.88439017 56.37853438 353.85536838 C49.06270181 353.83365301 41.74690989 353.82365938 34.43104547 353.82232785 C30.07329249 353.82128636 25.71567653 353.81552055 21.35795784 353.79750824 C17.24976033 353.78085733 13.1418003 353.7789532 9.03358078 353.78764725 C7.53899811 353.78840876 6.04440175 353.78419438 4.54985237 353.774189 C-25.3038136 353.58631261 -47.86648148 363.93294422 -67.46435547 386.31323242 Z " fill="#000000" transform="translate(189.56591796875,-0.145263671875)"/>
<path d="M0 0 C25.72686407 20.06627606 42.87477115 46.9041591 47.1875 79.8125 C50.70453212 110.22750066 42.8852261 142.09557466 23.75 166.3125 C22.17125466 168.14718528 20.56515926 169.95856698 18.9375 171.75 C18.4724707 172.2641748 18.00744141 172.77834961 17.52832031 173.30810547 C-2.16359748 194.80134951 -30.15009271 209.45074421 -59.57080078 210.87109375 C-93.37273158 212.05983758 -122.60344655 202.57880352 -148.375 180.3125 C-170.41425578 159.71371845 -184.0582567 130.19942773 -185.28125 100.1015625 C-186.12141045 67.66627724 -175.45363051 37.71155438 -153.14257812 13.92358398 C-113.35880239 -27.51323807 -46.66218998 -33.99673841 0 0 Z M-129.70263672 44.14648438 C-133.02097514 48.05938326 -135.65726579 52.23107513 -138.0625 56.75 C-138.52011719 57.60851562 -138.97773438 58.46703125 -139.44921875 59.3515625 C-148.38125042 77.53750086 -150.17169339 98.50006987 -144.44921875 117.9765625 C-140.34162135 129.6714222 -134.47715324 139.61100848 -126.0625 148.75 C-125.52367187 149.38035156 -124.98484375 150.01070312 -124.4296875 150.66015625 C-111.15831419 165.29868108 -90.02065043 172.7503074 -70.76171875 173.74609375 C-47.3942124 173.77076905 -27.75988714 164.76378774 -10.87890625 148.66796875 C3.64587829 133.40703528 10.37553322 112.89202709 10.30395508 92.14868164 C9.83382686 73.20790335 2.76483595 55.73007934 -10.0625 41.75 C-10.72636719 40.99460937 -11.39023437 40.23921875 -12.07421875 39.4609375 C-25.43624171 25.08626585 -44.51717801 16.59318808 -64.0234375 15.53515625 C-89.94815051 14.73652067 -112.53839335 24.97120232 -129.70263672 44.14648438 Z " fill="#000000" transform="translate(328.0625,70.25)"/>
</svg>
